<svg xmlns="http://www.w3.org/2000/svg" viewBox="0 0 512 512" id="database"><g><g><path fill="#fedb41" d="M271.92,163.99a82.208,82.208,0,0,1-6.08-17.84l-22.82-2.21V113.23l22.82-2.2a85.038,85.038,0,0,1,11.82-27.98L263.1,65.49l6.31-6.29,15.4-15.37,17.56,14.56a81.827,81.827,0,0,1,28.02-11.78l2.2-22.77h30.76l2.2,22.77a84.218,84.218,0,0,1,28.02,11.78l17.56-14.56,21.45,21.66L418.02,83.05a81.962,81.962,0,0,1,11.82,27.98l22.81,2.2v30.71l-22.54,2.21a84.92,84.92,0,0,1-11.83,27.97l14.56,17.56-21.71,21.67-17.56-14.56a81.837,81.837,0,0,1-23.61,10.7q-2.19.6-4.41,1.08l-2.2,22.77H332.59l-2.2-22.77a84.3,84.3,0,0,1-28.02-11.78l-17.56,14.56L263.1,191.68l14.56-17.56A83.071,83.071,0,0,1,271.92,163.99Zm130.97-35.4a55.03,55.03,0,1,0-55.03,54.95A54.99,54.99,0,0,0,402.89,128.59Z"></path><ellipse cx="347.86" cy="128.59" fill="#00efd1" rx="55.03" ry="54.95"></ellipse><path fill="#00efd1" d="M369.96,324.72V431.95c0,21.56-33.47,40.26-82.63,49.69a389.167,389.167,0,0,1-72.68,6.52c-85.79,0-155.3-25.14-155.3-56.21V324.72c0,31.06,69.51,56.2,155.3,56.2S369.96,355.78,369.96,324.72Z"></path><path fill="#00acea" d="M369.96,322.5v2.22c0,31.06-69.52,56.2-155.31,56.2s-155.3-25.14-155.3-56.2V218.22c0,31.06,69.51,56.21,155.3,56.21,71.04,0,130.93-17.25,149.42-40.82,3.84-4.89,5.89-10.05,5.89-15.39Z"></path><path fill="#00efd1" d="M363.35,233.34l.72.27c-18.49,23.57-78.38,40.82-149.42,40.82-85.79,0-155.3-25.15-155.3-56.21V111.72c0,31.05,69.53,56.21,155.3,56.21a406.13,406.13,0,0,0,57.27-3.94,83.071,83.071,0,0,0,5.74,10.13L263.1,191.68l21.71,21.67,17.56-14.56a84.3,84.3,0,0,0,28.02,11.78l2.2,22.77Z"></path><path fill="#00acea" d="M263.1,65.49l14.56,17.56a85.038,85.038,0,0,0-11.82,27.98l-22.82,2.2v30.71l22.82,2.21a82.208,82.208,0,0,0,6.08,17.84,406.13,406.13,0,0,1-57.27,3.94c-85.77,0-155.3-25.16-155.3-56.21s69.53-56.2,155.3-56.2a406.47,406.47,0,0,1,54.66,3.58l.1.1Z"></path></g><g><path fill="#f4b844" d="M241 213H189a7 7 0 0 0 0 14h52a7 7 0 0 0 0-14zM241 319H189a7 7 0 0 0 0 14h52a7 7 0 0 0 0-14zM241 427H189a7 7 0 0 0 0 14h52a7 7 0 0 0 0-14z"></path></g></g></svg>